<?xml version="1.0" encoding="utf-8"?>
<!-- Generator: Adobe Illustrator 15.0.0, SVG Export Plug-In . SVG Version: 6.00 Build 0)  -->
<!DOCTYPE svg PUBLIC "-//W3C//DTD SVG 1.1//EN" "http://www.w3.org/Graphics/SVG/1.1/DTD/svg11.dtd">
<svg version="1.1" id="Layer_1" xmlns="http://www.w3.org/2000/svg" xmlns:xlink="http://www.w3.org/1999/xlink" x="0px" y="0px"
	 width="1112px" height="317.561px" viewBox="0 0 1112 317.561" enable-background="new 0 0 1112 317.561" xml:space="preserve">
<rect y="-20.5" display="none" fill="#3B83C0" width="354" height="338.061"/>
<polygon fill="#FC5A35" points="189.788,67.276 112.595,88.135 229.504,205.043 250.364,127.852 "/>
<polygon fill="#FFE73F" points="112.242,87.782 114.127,118.423 197.566,201.863 227.736,203.275 "/>
<path fill="#FFFFFF" d="M155.846,161.557c0,0,4.007,4.008,14.968,14.969c10.842-10.844,38.537-40.658,79.313-49.381
	c18.62-25.69,48.791-90.745,39.834-99.702l0.235,0.235c-8.956-8.957-74.011,21.214-99.702,39.834
	c-8.722,40.776-38.537,68.47-49.38,79.314c10.96,10.961,14.967,14.967,14.967,14.967"/>
<rect x="132.205" y="159.6" transform="matrix(0.7071 0.7071 -0.7071 0.7071 161.0726 -60.3375)" fill="#FFE73F" width="42.333" height="9.335"/>
<polygon fill="#FFBE3B" points="156.805,197.4 126.818,167.414 120.637,161.232 136.908,154.404 163.632,181.129 "/>
<path fill="#FFE73F" d="M232.931,43.425c0,0-37.486,66.279-85.805,114.597c2.121,2.121,2.121,2.121,4.478,4.479
	c28.991-28.992,72.485-85.738,90.87-123.45C236.225,41.877,232.931,43.425,232.931,43.425z"/>
<path fill="#FFE73F" d="M273.748,85.686c0,0-65.34,36.981-113.659,85.301c-2.121-2.123-2.121-2.123-4.478-4.479
	c28.992-28.992,84.941-72.225,122.654-90.609C275.214,82.59,273.748,85.686,273.748,85.686z"/>
<circle fill="#00B5AD" cx="233.51" cy="84.129" r="25.666"/>
<path fill="#FFFFFF" d="M249.656,68.381c-7.527-12.545-45.573-10.307-38.521,24.958C214.053,76.453,226.599,60.38,249.656,68.381z"
	/>
<path fill="#FFFFFF" d="M0,321.561h353.614c-5.188-10.407-15.931-21.56-28.349-21.56c-6.327,0-12.216,1.863-17.161,5.06
	c-4.362-12.271-16.071-21.06-29.839-21.06c-10.547,0-19.885,5.161-25.64,13.092c-5.313-4.03-11.933-6.425-19.115-6.425
	c-9.095,0-17.288,3.84-23.063,9.98c-4.691-4.534-11.074-7.329-18.113-7.329c-1.569,0-3.104,0.146-4.598,0.412
	c-1.255-20.59-18.344-36.904-39.25-36.904c-1.72,0-3.41,0.122-5.071,0.337c0.211-1.338,0.324-2.708,0.324-4.105
	c0-9.027-4.589-16.982-11.562-21.662l16.308-42.316l-20.333-20.332l-58.529,14.778c-4.574-7.519-12.845-12.54-22.289-12.54
	c-3.48,0-6.797,0.688-9.833,1.924C31.732,155.791,17.621,142.516,0,137.916V321.561z"/>
<g>
	<path fill="#FFFFFF" d="M478.527,40.313v11.116h-23.158V40.313c0-4.94-3.86-7.411-11.579-7.411c-7.722,0-11.579,2.471-11.579,7.411
		V58.84c0,4.941,3.857,7.41,11.579,7.41c23.157,0,34.737,9.882,34.737,29.644v18.527c0,19.763-11.58,29.643-34.737,29.643
		c-23.159,0-34.738-9.88-34.738-29.643v-11.117h23.159v11.117c0,4.941,3.857,7.41,11.579,7.41c7.719,0,11.579-2.469,11.579-7.41
		V95.894c0-4.94-3.86-7.411-11.579-7.411c-23.159,0-34.738-9.88-34.738-29.643V40.313c0-19.762,11.579-29.644,34.738-29.644
		C466.947,10.669,478.527,20.55,478.527,40.313z"/>
	<path fill="#FFFFFF" d="M529.479,143.138c-2.225,0.616-6.085,0.927-11.58,0.927c-23.159,0-34.739-9.88-34.739-29.643V38.46h23.16
		v75.961c0,4.941,3.858,7.41,11.579,7.41c7.719,0,11.58-2.469,11.58-7.41V38.46h23.157v105.604h-23.157V143.138z"/>
	<path fill="#FFFFFF" d="M557.269,38.46h23.158v0.926c2.224-0.616,6.082-0.926,11.58-0.926c23.158,0,34.738,9.881,34.738,29.644
		v46.318c0,19.763-11.58,29.643-34.738,29.643c-5.498,0-9.356-0.311-11.58-0.927v28.717h-23.158V38.46z M580.427,114.421
		c0,4.941,3.859,7.41,11.58,7.41c7.718,0,11.58-2.469,11.58-7.41V68.104c0-4.94-3.862-7.411-11.58-7.411
		c-7.721,0-11.58,2.471-11.58,7.411V114.421z"/>
	<path fill="#FFFFFF" d="M654.536,102.378v12.043c0,4.941,3.858,7.41,11.579,7.41c7.72,0,11.58-2.469,11.58-7.41v-6.485h23.159
		v6.485c0,19.763-11.58,29.643-34.739,29.643c-23.158,0-34.737-9.88-34.737-29.643V68.104c0-19.762,11.579-29.644,34.737-29.644
		c23.159,0,34.739,9.881,34.739,29.644v34.274H654.536z M654.536,80.146h23.159V68.104c0-4.94-3.86-7.411-11.58-7.411
		c-7.721,0-11.579,2.471-11.579,7.411V80.146z"/>
	<path fill="#FFFFFF" d="M728.645,144.064h-23.159V38.46h23.159v0.926c2.223-0.616,6.082-0.926,11.58-0.926
		c23.157,0,34.737,9.881,34.737,29.644v6.484h-23.159v-6.484c0-4.94-3.859-7.411-11.578-7.411c-7.723,0-11.58,2.471-11.58,7.411
		V144.064z"/>
	<path fill="#FFFFFF" d="M849.07,40.313v11.116h-23.158V40.313c0-4.94-3.861-7.411-11.579-7.411c-7.721,0-11.58,2.471-11.58,7.411
		V58.84c0,4.941,3.859,7.41,11.58,7.41c23.158,0,34.737,9.882,34.737,29.644v18.527c0,19.763-11.579,29.643-34.737,29.643
		c-23.16,0-34.739-9.88-34.739-29.643v-11.117h23.159v11.117c0,4.941,3.859,7.41,11.58,7.41c7.718,0,11.579-2.469,11.579-7.41
		V95.894c0-4.94-3.861-7.411-11.579-7.411c-23.16,0-34.739-9.88-34.739-29.643V40.313c0-19.762,11.579-29.644,34.739-29.644
		C837.491,10.669,849.07,20.55,849.07,40.313z"/>
	<path fill="#FFFFFF" d="M923.18,114.421c0,19.763-11.58,29.643-34.739,29.643s-34.738-9.88-34.738-29.643V68.104
		c0-19.762,11.579-29.644,34.738-29.644s34.739,9.881,34.739,29.644V114.421z M900.021,68.104c0-4.94-3.861-7.411-11.58-7.411
		c-7.721,0-11.579,2.471-11.579,7.411v46.318c0,4.941,3.858,7.41,11.579,7.41c7.719,0,11.58-2.469,11.58-7.41V68.104z"/>
	<path fill="#FFFFFF" d="M950.971,39.386c2.223-0.616,6.082-0.926,11.579-0.926c23.159,0,34.738,9.881,34.738,29.644v75.961H974.13
		V68.104c0-4.94-3.861-7.411-11.58-7.411c-7.721,0-11.579,2.471-11.579,7.411v75.961h-23.158V38.46h23.158V39.386z"/>
	<path fill="#FFFFFF" d="M1025.079,10.669v22.232h-23.159V10.669H1025.079z M1025.079,38.46v105.604h-23.159V38.46H1025.079z"/>
	<path fill="#FFFFFF" d="M1064.448,144.064c-23.158,0-34.737-9.88-34.737-29.643V68.104c0-19.762,11.579-29.644,34.737-29.644
		c23.159,0,34.739,9.881,34.739,29.644v6.484h-23.159v-6.484c0-4.94-3.86-7.411-11.58-7.411c-7.721,0-11.579,2.471-11.579,7.411
		v46.318c0,4.941,3.858,7.41,11.579,7.41c7.72,0,11.58-2.469,11.58-7.41v-6.485h23.159v6.485
		C1099.188,134.185,1087.607,144.064,1064.448,144.064z"/>
</g>
<g>
	<path fill="#FFFFFF" d="M651.652,211.872c-0.393-0.911-0.732-1.872-1.016-2.882s-0.486-2.045-0.609-3.104
		c-1.108,1.946-2.568,3.56-4.379,4.84c-1.811,1.281-3.973,1.922-6.484,1.922c-4.188,0-7.416-1.077-9.682-3.233
		c-2.267-2.156-3.399-5.093-3.399-8.813c0-3.918,1.509-6.953,4.526-9.108s7.422-3.233,13.21-3.233h6.023v-3.179
		c0-1.921-0.505-3.411-1.515-4.471c-1.011-1.058-2.501-1.589-4.472-1.589c-1.749,0-3.099,0.426-4.046,1.275
		c-0.949,0.85-1.423,2.026-1.423,3.529l-10.421-0.037l-0.036-0.222c-0.172-3.375,1.293-6.288,4.396-8.739
		c3.104-2.45,7.182-3.677,12.232-3.677c4.778,0,8.657,1.214,11.639,3.64c2.98,2.426,4.471,5.882,4.471,10.364v16.517
		c0,1.873,0.143,3.635,0.426,5.285c0.282,1.65,0.732,3.289,1.348,4.914H651.652z M641.788,204.667c1.896,0,3.584-0.468,5.062-1.404
		c1.479-0.936,2.476-2.02,2.993-3.252v-5.652h-6.023c-2.29,0-4.027,0.571-5.21,1.718c-1.183,1.146-1.773,2.531-1.773,4.156
		c0,1.331,0.443,2.402,1.33,3.216C639.054,204.261,640.26,204.667,641.788,204.667z"/>
	<path fill="#FFFFFF" d="M685.39,167.273l5.985-13.045h5.285l-2.217,13.007v7.131h-9.054V167.273z M697.547,167.273l5.986-13.045
		h5.283l-2.217,13.007v7.131h-9.053V167.273z"/>
	<path fill="#FFFFFF" d="M736.123,181.166l-3.954-0.109c-1.601,0-2.919,0.331-3.953,0.996c-1.035,0.666-1.823,1.603-2.365,2.808
		v27.012h-10.752v-39.981h10.013l0.481,5.913c0.936-2.094,2.147-3.725,3.639-4.896c1.49-1.171,3.209-1.756,5.154-1.756
		c0.542,0,1.041,0.044,1.497,0.13c0.455,0.086,0.918,0.19,1.386,0.313L736.123,181.166z"/>
	<path fill="#FFFFFF" d="M759.291,212.648c-5.765,0-10.371-1.849-13.819-5.543c-3.45-3.694-5.173-8.387-5.173-14.078v-1.478
		c0-5.938,1.631-10.828,4.896-14.67c3.265-3.843,7.643-5.752,13.136-5.728c5.396,0,9.583,1.626,12.563,4.877
		c2.98,3.252,4.472,7.649,4.472,13.191v5.876h-23.871l-0.074,0.221c0.197,2.626,1.078,4.784,2.642,6.478
		c1.565,1.693,3.689,2.539,6.375,2.539c2.39,0,4.372-0.239,5.949-0.72c1.576-0.48,3.301-1.238,5.173-2.272l2.919,6.667
		c-1.626,1.336-3.757,2.444-6.392,3.321C765.449,212.208,762.519,212.648,759.291,212.648z M758.33,179.467
		c-1.995,0-3.572,0.764-4.729,2.291c-1.158,1.527-1.872,3.535-2.144,6.022l0.111,0.185h13.229v-0.961
		c0-2.29-0.536-4.119-1.607-5.486S760.497,179.467,758.33,179.467z"/>
	<path fill="#FFFFFF" d="M779.984,192.214c0-6.306,1.359-11.393,4.083-15.26c2.722-3.867,6.558-5.802,11.51-5.802
		c1.995,0,3.792,0.432,5.396,1.293c1.601,0.863,3.004,2.095,4.212,3.696v-21.913h10.826v57.644h-9.274l-0.887-4.877
		c-1.257,1.847-2.74,3.252-4.453,4.212c-1.712,0.96-3.677,1.441-5.894,1.441c-4.903,0-8.714-1.798-11.436-5.396
		c-2.724-3.596-4.083-8.351-4.083-14.263V192.214z M790.736,192.996c0,3.52,0.592,6.29,1.773,8.309
		c1.184,2.02,3.104,3.029,5.765,3.029c1.553,0,2.906-0.315,4.065-0.948c1.157-0.631,2.105-1.554,2.845-2.769V183.48
		c-0.739-1.264-1.681-2.248-2.827-2.955c-1.146-0.706-2.481-1.059-4.009-1.059c-2.637,0-4.563,1.177-5.782,3.531
		c-1.221,2.354-1.83,5.427-1.83,9.218V192.996z"/>
	<path fill="#FFFFFF" d="M822.699,192.214c0-6.306,1.359-11.393,4.082-15.26s6.56-5.802,11.51-5.802
		c1.996,0,3.794,0.432,5.396,1.293c1.601,0.863,3.006,2.095,4.213,3.696v-21.913h10.826v57.644h-9.274l-0.886-4.877
		c-1.257,1.847-2.741,3.252-4.453,4.212c-1.713,0.96-3.677,1.441-5.895,1.441c-4.902,0-8.714-1.798-11.437-5.396
		c-2.723-3.596-4.082-8.351-4.082-14.263V192.214z M833.452,192.996c0,3.52,0.591,6.29,1.773,8.309
		c1.182,2.02,3.103,3.029,5.764,3.029c1.552,0,2.907-0.315,4.065-0.948c1.156-0.631,2.105-1.554,2.845-2.769V183.48
		c-0.739-1.264-1.682-2.248-2.826-2.955c-1.146-0.706-2.482-1.059-4.011-1.059c-2.635,0-4.563,1.177-5.782,3.531
		c-1.22,2.354-1.828,5.427-1.828,9.218V192.996z"/>
	<path fill="#FFFFFF" d="M878.421,162.321h-10.789v-8.093h10.789V162.321z M878.421,211.872h-10.789v-39.981h10.789V211.872z"/>
	<path fill="#FFFFFF" d="M900.111,162.099v9.792h6.726v7.576h-6.726v20.36c0,1.551,0.32,2.659,0.96,3.325
		c0.641,0.664,1.504,0.997,2.587,0.997c0.567,0,1.054-0.03,1.46-0.092s0.881-0.167,1.423-0.315l0.924,7.798
		c-1.086,0.369-2.145,0.646-3.178,0.831c-1.034,0.184-2.156,0.277-3.362,0.277c-3.721,0-6.584-1.022-8.592-3.066
		c-2.008-2.045-3.012-5.284-3.012-9.718v-20.397h-5.839v-7.576h5.839v-9.792H900.111z"/>
	<path fill="#FFFFFF" d="M949.773,192.99c0,5.962-1.33,10.729-3.991,14.3c-2.66,3.572-6.503,5.358-11.528,5.358
		c-2.315,0-4.342-0.487-6.078-1.459c-1.737-0.973-3.209-2.396-4.417-4.269l-0.813,4.951h-9.237v-57.644h10.753v21.913
		c1.157-1.602,2.544-2.833,4.156-3.696c1.613-0.861,3.468-1.293,5.562-1.293c5.074,0,8.942,1.916,11.603,5.746
		c2.661,3.83,3.991,8.937,3.991,15.315V192.99z M939.021,192.216c0-3.915-0.573-7.019-1.719-9.311
		c-1.145-2.292-3.098-3.438-5.856-3.438c-1.675,0-3.092,0.353-4.249,1.059c-1.158,0.707-2.069,1.717-2.734,3.03v17.024
		c0.665,1.215,1.583,2.144,2.753,2.787c1.169,0.646,2.604,0.967,4.305,0.967c2.784,0,4.729-0.984,5.838-2.954
		c1.109-1.971,1.663-4.765,1.663-8.384V192.216z"/>
	<path fill="#FFFFFF" d="M954.763,191.513c0-5.961,1.662-10.845,4.987-14.651c3.326-3.806,7.932-5.709,13.82-5.709
		c5.912,0,10.542,1.897,13.894,5.69c3.35,3.794,5.024,8.684,5.024,14.67v0.775c0,6.011-1.669,10.907-5.006,14.688
		c-3.339,3.782-7.95,5.673-13.839,5.673c-5.911,0-10.538-1.891-13.875-5.673c-3.339-3.78-5.006-8.677-5.006-14.688V191.513z
		 M965.515,192.27c0,3.641,0.64,6.562,1.922,8.763c1.28,2.202,3.349,3.302,6.207,3.302c2.783,0,4.822-1.106,6.115-3.32
		c1.294-2.214,1.94-5.129,1.94-8.744v-0.775c0-3.541-0.652-6.432-1.959-8.67c-1.306-2.238-3.362-3.357-6.17-3.357
		c-2.785,0-4.822,1.125-6.116,3.376c-1.293,2.25-1.939,5.135-1.939,8.651V192.27z"/>
	<path fill="#FFFFFF" d="M997.478,191.513c0-5.961,1.662-10.845,4.988-14.651c3.325-3.806,7.932-5.709,13.819-5.709
		c5.911,0,10.543,1.897,13.894,5.69c3.35,3.794,5.025,8.684,5.025,14.67v0.775c0,6.011-1.67,10.907-5.008,14.688
		c-3.337,3.782-7.95,5.673-13.837,5.673c-5.912,0-10.538-1.891-13.876-5.673c-3.339-3.78-5.006-8.677-5.006-14.688V191.513z
		 M1008.229,192.27c0,3.641,0.64,6.562,1.922,8.763c1.279,2.202,3.349,3.302,6.208,3.302c2.782,0,4.821-1.106,6.115-3.32
		c1.293-2.214,1.939-5.129,1.939-8.744v-0.775c0-3.541-0.652-6.432-1.959-8.67c-1.306-2.238-3.361-3.357-6.17-3.357
		c-2.785,0-4.822,1.125-6.116,3.376c-1.293,2.25-1.939,5.135-1.939,8.651V192.27z"/>
	<path fill="#FFFFFF" d="M1055.602,195.135h-2.957v16.737h-10.789v-57.644h10.789v32.702h2.66l9.275-15.04h12.489l-12.785,18.107
		l14.743,21.874h-12.378L1055.602,195.135z"/>
	<path fill="#FFFFFF" d="M1091.664,161.397l-5.984,12.933h-5.322l2.217-12.896v-7.205h9.09V161.397z M1104.118,161.397
		l-5.986,12.933h-5.321l2.217-12.896v-7.205h9.091V161.397z"/>
</g>
</svg>
