<?xml version="1.0" encoding="utf-8"?>
<!-- Generator: Adobe Illustrator 15.0.0, SVG Export Plug-In . SVG Version: 6.00 Build 0)  -->
<!DOCTYPE svg PUBLIC "-//W3C//DTD SVG 1.1//EN" "http://www.w3.org/Graphics/SVG/1.1/DTD/svg11.dtd">
<svg version="1.1" id="Layer_1" xmlns="http://www.w3.org/2000/svg" xmlns:xlink="http://www.w3.org/1999/xlink" x="0px" y="0px"
	 width="354px" height="338.061px" viewBox="0 0 354 338.061" enable-background="new 0 0 354 338.061" xml:space="preserve">
<polygon fill="#FC5A35" points="189.788,87.776 112.595,108.635 229.504,225.543 250.364,148.352 "/>
<polygon fill="#FFE73F" points="112.242,108.282 114.127,138.923 197.566,222.363 227.736,223.775 "/>
<path fill="#FFFFFF" d="M155.846,182.057c0,0,4.007,4.008,14.968,14.969c10.842-10.844,38.537-40.658,79.313-49.381
	c18.62-25.69,48.791-90.745,39.834-99.702l0.235,0.235c-8.956-8.957-74.011,21.214-99.702,39.834
	c-8.722,40.776-38.537,68.47-49.38,79.314c10.96,10.961,14.967,14.967,14.967,14.967"/>
<rect x="132.205" y="180.1" transform="matrix(0.7071 0.7071 -0.7071 0.7071 175.5681 -54.3335)" fill="#FFE73F" width="42.333" height="9.335"/>
<polygon fill="#FFBE3B" points="156.805,217.9 126.818,187.914 120.637,181.732 136.908,174.904 163.632,201.629 "/>
<path fill="#FFE73F" d="M232.931,63.925c0,0-37.486,66.279-85.805,114.597c2.121,2.121,2.121,2.121,4.478,4.479
	c28.991-28.992,72.485-85.738,90.87-123.45C236.225,62.377,232.931,63.925,232.931,63.925z"/>
<path fill="#FFE73F" d="M273.748,106.186c0,0-65.34,36.981-113.659,85.301c-2.121-2.123-2.121-2.123-4.478-4.479
	c28.992-28.992,84.941-72.225,122.654-90.609C275.214,103.09,273.748,106.186,273.748,106.186z"/>
<circle fill="#00B5AD" cx="233.51" cy="104.629" r="25.666"/>
<path fill="#FFFFFF" d="M249.656,88.881c-7.527-12.545-45.573-10.307-38.521,24.958C214.053,96.953,226.599,80.88,249.656,88.881z"
	/>
<path fill="#FFFFFF" d="M0,338.061h353.614c-5.188-10.407-15.931-17.56-28.349-17.56c-6.327,0-12.216,1.863-17.161,5.06
	c-4.362-12.271-16.071-21.06-29.839-21.06c-10.547,0-19.885,5.161-25.64,13.092c-5.313-4.03-11.933-6.425-19.115-6.425
	c-9.095,0-17.288,3.84-23.063,9.98c-4.691-4.534-11.074-7.329-18.113-7.329c-1.569,0-3.104,0.146-4.598,0.412
	c-1.255-20.59-18.344-36.904-39.25-36.904c-1.72,0-3.41,0.122-5.071,0.337c0.211-1.338,0.324-2.708,0.324-4.105
	c0-9.027-4.589-16.982-11.562-21.662l16.308-42.316l-20.333-20.332l-58.529,14.778c-4.574-7.519-12.845-12.54-22.289-12.54
	c-3.48,0-6.797,0.688-9.833,1.924C31.732,176.291,17.621,163.016,0,158.416V338.061z"/>
</svg>
